<svg enable-background="new 0 0 200 200" viewBox="0 0 200 200" xmlns="http://www.w3.org/2000/svg"><g fill="#96cd37"><path d="m139.5 151.7h-62.3c-1.6 0-3-1.1-3.3-2.6l-4.4-18.9c-.4-1.8.7-3.7 2.6-4.1 1.8-.4 3.7.7 4.1 2.6l3.7 16.2h59.6c1.9 0 3.4 1.5 3.4 3.4s-1.5 3.4-3.4 3.4z"/><path d="m69 116.9c-1.6 0-3-1.1-3.3-2.6l-18-78.1h-22.7c-1.9 0-3.4-1.5-3.4-3.4s1.5-3.4 3.4-3.4h25.4c1.6 0 3 1.1 3.3 2.6l18.6 80.8c.4 1.8-.7 3.7-2.6 4.1-.1 0-.4 0-.7 0z"/><path d="m90.1 170.7c-7.2 0-12.9-5.8-12.9-12.9 0-7.2 5.8-12.9 12.9-12.9h.1c7.1 0 12.9 5.8 12.9 12.9-.1 7.1-5.9 12.9-13 12.9zm-.1-19c-3.3 0-6 2.7-6 6 0 3.4 2.7 6.1 6 6.1 3.4 0 6.1-2.7 6.1-6 0-3.4-2.7-6.1-6.1-6.1z"/><path d="m140 170.7c-7.2 0-12.9-5.8-12.9-12.9 0-7.2 5.8-12.9 12.9-12.9h.1c7.1 0 12.9 5.8 12.9 12.9-.2 7.1-5.9 12.9-13 12.9zm-.1-19c-3.3 0-6 2.7-6 6 0 3.4 2.7 6.1 6 6.1 3.4 0 6.1-2.7 6.1-6 0-3.4-2.7-6.1-6.1-6.1z"/><path d="m73.9 131.9h91.6l9.5-70.6h-117.4z"/><path d="m165.5 135.3h-91.6c-1.6 0-3-1.1-3.3-2.6l-16.3-70.6c-.2-1 0-2.1.7-2.9.6-.8 1.6-1.3 2.7-1.3h117.3c1 0 1.9.4 2.6 1.2.6.7.9 1.7.8 2.7l-9.5 70.6c-.3 1.6-1.7 2.9-3.4 2.9zm-88.9-6.8h85.9l8.6-63.8h-109.2z"/></g></svg>